<svg width="125" height="125" viewBox="0 0 125 125" fill="none" xmlns="http://www.w3.org/2000/svg">
<path d="M115.626 112.064H9.37402V18.491L13.8977 13.3294H110.266L115.626 18.491V112.064Z" fill="#F9F6F9"/>
<path d="M110.317 15.9758V112.064H115.626V18.491L110.317 15.9758Z" fill="#DDDAEC"/>
<path d="M100.757 0H24.2432C19.158 0 14.6333 3.22681 12.9768 8.03442L9.37402 18.491H115.626L112.023 8.03467C110.367 3.22681 105.842 0 100.757 0V0Z" fill="#0D98EF"/>
<path d="M112.023 8.03442C110.367 3.22681 105.842 0 100.757 0H95.4478C100.533 0 105.058 3.22681 106.714 8.03442L110.317 18.4907H115.626L112.023 8.03442Z" fill="#0387E9"/>
<path d="M115.626 112.064H9.37402V118.858C9.37402 122.25 12.124 125 15.5159 125H109.484C112.876 125 115.626 122.25 115.626 118.858V112.064H115.626Z" fill="#407093"/>
<path d="M110.317 112.064V118.858C110.317 122.25 107.567 125 104.175 125H109.484C112.876 125 115.626 122.25 115.626 118.858V112.064H110.317Z" fill="#365E7D"/>
<path d="M28.8789 13.3293C31.1344 13.3293 32.9629 11.5009 32.9629 9.24536C32.9629 6.98984 31.1344 5.16138 28.8789 5.16138C26.6234 5.16138 24.7949 6.98984 24.7949 9.24536C24.7949 11.5009 26.6234 13.3293 28.8789 13.3293Z" fill="#F9F6F9"/>
<path d="M46.9058 13.3293C49.1613 13.3293 50.9897 11.5009 50.9897 9.24536C50.9897 6.98984 49.1613 5.16138 46.9058 5.16138C44.6502 5.16138 42.8218 6.98984 42.8218 9.24536C42.8218 11.5009 44.6502 13.3293 46.9058 13.3293Z" fill="#F9F6F9"/>
<path d="M65.7812 11.1318H59.3608C58.3191 11.1318 57.4746 10.2873 57.4746 9.2456C57.4746 8.20385 58.3191 7.35937 59.3608 7.35937H65.7812C66.8232 7.35937 67.6675 8.20385 67.6675 9.2456C67.6675 10.2873 66.8232 11.1318 65.7812 11.1318Z" fill="#F9F6F9"/>
<path d="M82.9932 11.1318H76.5728C75.5308 11.1318 74.6865 10.2873 74.6865 9.2456C74.6865 8.20385 75.531 7.35937 76.5728 7.35937H82.9932C84.0352 7.35937 84.8794 8.20385 84.8794 9.2456C84.8794 10.2873 84.0352 11.1318 82.9932 11.1318Z" fill="#F9F6F9"/>
<path d="M100.205 11.1318H93.7847C92.7427 11.1318 91.8984 10.2873 91.8984 9.2456C91.8984 8.20385 92.7429 7.35937 93.7847 7.35937H100.205C101.247 7.35937 102.091 8.20385 102.091 9.2456C102.091 10.2873 101.247 11.1318 100.205 11.1318Z" fill="#F9F6F9"/>
<path d="M62.4524 99.6628C81.4427 99.6628 96.8374 84.2682 96.8374 65.2778C96.8374 46.2875 81.4427 30.8928 62.4524 30.8928C43.4621 30.8928 28.0674 46.2875 28.0674 65.2778C28.0674 84.2682 43.4621 99.6628 62.4524 99.6628Z" fill="#407093"/>
<path d="M62.4524 30.8926C61.4175 30.8926 60.394 30.9409 59.3823 31.0305C76.9341 32.584 90.6973 47.3223 90.6973 65.2776C90.6973 83.2329 76.9341 97.9714 59.3823 99.5247C60.394 99.6143 61.4175 99.6626 62.4524 99.6626C81.4429 99.6626 96.8374 84.2678 96.8374 65.2773C96.8374 46.2869 81.4426 30.8926 62.4524 30.8926Z" fill="#365E7D"/>
<path d="M115.626 34.4729H100.948C98.678 34.4729 96.8374 32.6323 96.8374 30.3618C96.8374 28.0913 98.678 26.2507 100.948 26.2507H115.626V34.4729Z" fill="#0D98EF"/>
<path d="M110.317 26.2507H115.626V34.4729H110.317V26.2507Z" fill="#0387E9"/>
<path d="M9.37402 95.5518H24.0515C26.322 95.5518 28.1626 97.3923 28.1626 99.6628C28.1626 101.933 26.322 103.774 24.0515 103.774H9.37402V95.5518Z" fill="#0D98EF"/>
<path d="M85.6187 68.553C84.5767 68.553 83.7324 67.7085 83.7324 66.6667V63.8889C83.7324 62.8469 84.5769 62.0027 85.6187 62.0027C86.6604 62.0027 87.5049 62.8472 87.5049 63.8889V66.6667C87.5049 67.7085 86.6604 68.553 85.6187 68.553Z" fill="#365E7D"/>
<path d="M60.7952 64.9199C65.864 68.292 72.1812 68.3484 77.6511 67.3638C77.6116 67.105 77.5911 66.8408 77.5911 66.5732V63.9819C77.5911 61.8413 78.8984 59.918 80.8889 59.1306C83.97 57.9116 85.1604 54.1587 83.3235 51.4011C78.8413 44.6721 71.1924 40.2336 62.5049 40.2158C48.8477 40.1877 37.583 51.2644 37.3926 64.9202C37.3926 64.9199 49.3362 57.2971 60.7952 64.9199Z" fill="#F9F6F9"/>
<path d="M83.3235 51.4009C78.8413 44.6719 71.1924 40.2334 62.5049 40.2156C61.5115 40.2136 60.5313 40.272 59.5664 40.3843C67.0645 41.2473 73.5559 45.417 77.542 51.4011C79.3789 54.1589 78.1887 57.9116 75.1074 59.1306C73.117 59.9182 71.8096 61.8416 71.8096 63.9819C71.8262 66.5073 71.731 66.9531 71.9876 67.9158C73.9177 67.9023 75.8313 67.6912 77.6509 67.3635C77.551 66.7107 77.6069 66.4441 77.5908 63.9817C77.5908 61.8411 78.8982 59.9177 80.8887 59.1304C83.9702 57.9114 85.1607 54.1587 83.3235 51.4009Z" fill="#DDDAEC"/>
<path d="M62.4524 90.3398C71.1724 90.3398 78.8511 85.886 83.3401 79.1296C85.1673 76.3796 83.96 72.6399 80.8899 71.425L80.889 71.4248C79.1473 70.7356 77.9285 69.177 77.6512 67.3638C72.1812 68.3484 65.8641 68.292 60.7952 64.9199C49.3362 57.2969 37.3926 64.9199 37.3926 64.9199C37.1973 78.9253 48.4918 90.3398 62.4524 90.3398Z" fill="#0D98EF"/>
<path d="M80.8899 71.4251L80.8889 71.4248C79.1472 70.7356 77.9285 69.177 77.6511 67.3638C75.8313 67.6914 73.9177 67.9026 71.9878 67.916C72.407 69.4888 73.5459 70.8069 75.1077 71.4248L75.1086 71.4251C78.1787 72.6396 79.3857 76.3796 77.5588 79.1296C73.5725 85.1296 67.0696 89.3105 59.5571 90.1724C60.5073 90.2817 61.4731 90.3398 62.4526 90.3398C71.1726 90.3398 78.8513 85.886 83.3403 79.1296C85.1672 76.3796 83.96 72.6396 80.8899 71.4251Z" fill="#0387E9"/>
<path d="M27.02 120.419H20.9937C19.9519 120.419 19.1074 119.574 19.1074 118.532C19.1074 117.49 19.9519 116.646 20.9937 116.646H27.0203C28.062 116.646 28.9065 117.491 28.9065 118.532C28.9065 119.574 28.0618 120.419 27.02 120.419Z" fill="#365E7D"/>
<path d="M103.911 120.419H97.8845C96.8425 120.419 95.9983 119.574 95.9983 118.532C95.9983 117.49 96.8428 116.646 97.8845 116.646H103.911C104.953 116.646 105.797 117.491 105.797 118.532C105.797 119.574 104.953 120.419 103.911 120.419Z" fill="#365E7D"/>
</svg>
